<svg width="276" height="248" viewBox="0 0 276 248" fill="none" xmlns="http://www.w3.org/2000/svg">
<mask id="mask0_4_1653" style="mask-type:luminance" maskUnits="userSpaceOnUse" x="0" y="123" width="276" height="125">
<path d="M275.93 123.25H0V247.27H275.93V123.25Z" fill="white"/>
</mask>
<g mask="url(#mask0_4_1653)">
<path d="M275.93 123.25H0V247.27H275.93V123.25Z" fill="url(#paint0_linear_4_1653)"/>
</g>
<path d="M275.93 0H0V124.02H275.93V0Z" fill="white"/>
<path d="M214.94 60.81L240.24 102.31H255.19L229.88 60.81L254.62 21.7H239.66L214.93 60.81H214.94ZM118.21 21.7L137.88 102.31H151.68L167.23 36.9899L182.74 102.31H196.54L216.21 21.7H202.41L189.47 86.3299L174.11 21.7099H160.31L144.98 86.3299L132.01 21.7H118.21ZM103.26 21.7L80.4799 102.31H94.28L102.75 72.31H122.42L119.63 60.81H106L117.06 21.7H103.26ZM34.36 65.4799H64.26V102.31H76.91V21.7H64.26V53.8999H34.36V21.7H21.7V102.31H34.36V65.4799Z" fill="#575756"/>
<path d="M68.2999 218.48H24.1899V208.82C28.1999 204.91 36.6299 196.48 41.3599 191.34C50.5099 181.26 52.5699 174.99 52.5699 170.26C52.5699 163.17 48.7699 161.01 44.0399 161.01C39.6199 161.01 35.2999 163.07 29.5399 167.8L22.1399 159.06C29.5399 152.48 37.4599 148.88 48.0499 148.88C60.2799 148.88 68.0999 156.9 68.0999 168.52C68.0999 175.92 63.3699 183.84 56.0699 191.86C52.9899 195.25 48.3599 199.88 43.8399 204.09C42.8099 205.12 40.9599 206.76 39.9299 207.48C42.1899 207.17 47.3299 206.97 50.7299 206.97H71.2899L68.3099 218.49L68.2999 218.48ZM107.48 219.92C92.4699 219.92 83.1099 206.04 83.1099 184.55C83.1099 163.06 93.0799 148.87 107.58 148.87C122.08 148.87 131.95 162.75 131.95 184.24C131.95 205.73 121.98 219.92 107.48 219.92ZM107.58 158.95C100.59 158.95 98.4299 169.13 98.4299 184.04C98.4299 204.91 102.23 209.85 107.48 209.85C114.47 209.85 116.63 199.57 116.63 184.66C116.63 163.79 112.83 158.96 107.58 158.96V158.95ZM154.05 221.57C150.86 221.57 149.42 221.57 145.52 221.06L142.23 211.5C145.42 212.12 146.75 212.22 150.04 212.22C164.33 212.22 174.1 205.74 174.1 196.39C174.1 193 172.35 189.81 169.58 188.58C167.63 187.65 164.54 187.35 160.02 187.35C158.27 187.35 156.52 187.45 154.78 187.45V175.93C157.14 176.24 159.51 176.34 161.87 176.34C169.48 176.34 173.28 173.67 173.28 168.22C173.28 163.8 170.5 160.51 164.54 160.51C157.65 160.51 152.41 163.7 149.32 166.27L142.12 157.53C149.01 152.18 157.64 148.89 166.38 148.89C179.23 148.89 188.59 156.5 188.59 166.78C188.59 174.29 183.86 180.04 178 181.89C185.71 184.46 190.23 190.32 190.23 197.52C190.23 211.71 175.32 221.58 154.04 221.58L154.05 221.57ZM228.38 219.92C213.37 219.92 204.01 206.04 204.01 184.55C204.01 163.06 213.98 148.87 228.48 148.87C242.98 148.87 252.85 162.75 252.85 184.24C252.85 205.73 242.88 219.92 228.38 219.92ZM228.48 158.95C221.49 158.95 219.33 169.13 219.33 184.04C219.33 204.91 223.13 209.85 228.38 209.85C235.37 209.85 237.53 199.57 237.53 184.66C237.53 163.79 233.73 158.96 228.48 158.96V158.95Z" fill="white"/>
<defs>
<linearGradient id="paint0_linear_4_1653" x1="0.004" y1="184.638" x2="275.939" y2="184.638" gradientUnits="userSpaceOnUse">
<stop stop-color="#56C2DF"/>
<stop offset="0.12" stop-color="#48AFD4"/>
<stop offset="0.35" stop-color="#247FBA"/>
<stop offset="0.56" stop-color="#004F9F"/>
<stop offset="1" stop-color="#004F9F"/>
</linearGradient>
</defs>
</svg>
